<?xml version="1.0" encoding="UTF-8"?>
<svg version="1.1" xmlns="http://www.w3.org/2000/svg" width="1024" height="1024">
<path d="M0 0 C337.92 0 675.84 0 1024 0 C1024 337.92 1024 675.84 1024 1024 C686.08 1024 348.16 1024 0 1024 C0 686.08 0 348.16 0 0 Z " fill="#222222" transform="translate(0,0)"/>
<path d="M0 0 C0.72044495 0.00337372 1.44088989 0.00674744 2.1831665 0.01022339 C14.09594706 0.09073962 25.42325828 0.97863699 36.875 4.4375 C37.65939453 4.67355957 38.44378906 4.90961914 39.25195312 5.15283203 C55.51554621 10.24258846 71.14275271 17.99754403 83.875 29.4375 C85.30005859 30.66726562 85.30005859 30.66726562 86.75390625 31.921875 C112.04629639 54.05932305 127.74985835 84.83141701 130.875 118.4375 C132.91686049 152.42753886 122.51388397 185.36924042 100.51171875 211.48046875 C78.40703299 236.27046448 50.99108738 251.58956271 17.875 256.4375 C-8.03108166 257.84699067 -31.62551199 256.24570044 -55.125 244.4375 C-56.06931885 243.98334717 -56.06931885 243.98334717 -57.03271484 243.52001953 C-87.64738318 228.78597915 -109.66930736 201.90394176 -121.80859375 170.546875 C-132.90719209 138.03403565 -129.71354343 102.59540458 -114.98828125 71.8984375 C-100.44645855 42.7571246 -74.0777354 17.3822659 -42.828125 6.9375 C-38.62449934 5.62884176 -34.40453917 4.46973552 -30.125 3.4375 C-29.11099121 3.17783447 -28.09698242 2.91816895 -27.05224609 2.65063477 C-18.002102 0.48853468 -9.25939433 -0.08456619 0 0 Z " fill="#dd0e0e" transform="translate(238.125,218.5625)"/>
<path d="M0 0 C3.22265625 -0.328125 3.22265625 -0.328125 7.0625 -0.25 C8.33222656 -0.23453125 9.60195313 -0.2190625 10.91015625 -0.203125 C14 0 14 0 15 1 C15.60983605 7.7269607 13.67654695 13.73491313 11.9375 20.1875 C9.16299061 30.89153712 6.72031379 41.62332548 4.58547974 52.47280884 C4.2831484 54.00895019 3.97748841 55.54444092 3.66818237 57.07919312 C1.678848 66.988004 0.04103701 76.8611816 0 87 C0.33 87.33 0.66 87.66 1 88 C7.18472531 87.75746175 9.61511102 85.97699233 14 82 C14.66 82 15.32 82 16 82 C15.32499715 88.61502797 14.17416502 94.43022091 8.9375 98.875 C3.30149299 102.95211145 -2.17227328 102.77837777 -9 102 C-12.0597372 100.34341501 -13.4495788 98.10084241 -15 95 C-15.22858114 92.9625237 -15.41024278 90.91959697 -15.5625 88.875 C-15.64628906 87.77929688 -15.73007812 86.68359375 -15.81640625 85.5546875 C-15.87699219 84.71164062 -15.93757812 83.86859375 -16 83 C-16.4125 83.56847656 -16.825 84.13695312 -17.25 84.72265625 C-23.73278736 93.39049024 -30.99687252 101.40346734 -42.13671875 103.37890625 C-45.65459568 103.58662851 -48.06452167 102.97022077 -51.25 101.5 C-55.65699255 97.49364314 -58.11700149 92.73116779 -58.53125 86.73828125 C-58.54808869 85.26308016 -58.53690298 83.78733558 -58.5 82.3125 C-58.48187256 81.1378418 -58.48187256 81.1378418 -58.46337891 79.93945312 C-58.00447716 66.33371171 -52.53980635 53.75662013 -43 44 C-31.60016361 34.56922626 -21.39668138 32.30056609 -7 33 C-6.81824219 31.7315625 -6.81824219 31.7315625 -6.6328125 30.4375 C-5.09636398 20.0369254 -5.09636398 20.0369254 -3.9375 15.75 C-3.02840215 12.1136086 -2.60749866 8.70591855 -2.34375 4.98046875 C-2 3 -2 3 0 0 Z " fill="#F7F6F8" transform="translate(643,290)"/>
<path d="M0 0 C4.25976314 3.24772438 6.43528139 6.82371003 7.2109375 12.1328125 C7.43114368 18.60687405 6.65118616 23.13543543 2.28515625 28.1171875 C-4.92560993 35.22146558 -15.4453677 39.18119117 -25.5234375 39.4765625 C-26.67199219 39.46496094 -27.82054687 39.45335937 -29.00390625 39.44140625 C-30.16535156 39.43238281 -31.32679688 39.42335938 -32.5234375 39.4140625 C-33.40386719 39.40246094 -34.28429687 39.39085937 -35.19140625 39.37890625 C-33.86864437 46.30853462 -33.86864437 46.30853462 -29.19140625 51.37890625 C-24.3818142 54.23363185 -19.6323198 53.95682712 -14.19140625 53.37890625 C-7.81522917 51.7426915 -2.50883492 49.19654735 2.80859375 45.37890625 C3.46859375 45.37890625 4.12859375 45.37890625 4.80859375 45.37890625 C5.09811027 50.97622557 4.99312224 54.54720785 1.80859375 59.37890625 C-6.47124928 66.85376454 -17.64105564 68.32462812 -28.44140625 67.83203125 C-36.22598003 66.89139525 -42.18792953 63.41251054 -47.19140625 57.37890625 C-53.12730761 49.40783871 -54.04666602 42.10071978 -53.19140625 32.37890625 C-50.70100636 19.46461702 -44.01764505 8.93290567 -33.19140625 1.37890625 C-23.56578916 -3.96195339 -9.9152872 -5.37937132 0 0 Z " fill="#F5F4F7" transform="translate(716.19140625,325.62109375)"/>
<path d="M0 0 C2.73159561 4.27949978 2.87043933 7.9998049 1.875 12.9375 C-0.087059 16.71484981 -3.04293296 19.57681099 -7.125 20.9375 C-8.115 20.9375 -9.105 20.9375 -10.125 20.9375 C-10.22296875 20.32261719 -10.3209375 19.70773437 -10.421875 19.07421875 C-10.57140625 18.26597656 -10.7209375 17.45773437 -10.875 16.625 C-11.01421875 15.82449219 -11.1534375 15.02398437 -11.296875 14.19921875 C-12.36665815 11.27749968 -13.40312446 10.41749065 -16.125 8.9375 C-23.10297336 7.72569565 -29.16839457 8.54159249 -35.10546875 12.4140625 C-35.77191406 12.91679687 -36.43835938 13.41953125 -37.125 13.9375 C-37.73988281 14.39898437 -38.35476563 14.86046875 -38.98828125 15.3359375 C-46.13948717 21.58333248 -52.27450218 33.40550557 -53.125 42.9375 C-54.02264946 59.43019676 -54.02264946 59.43019676 -47.125 73.9375 C-41.916424 78.2345752 -36.7894562 79.69269475 -30.09765625 79.36328125 C-21.9757104 78.19995392 -14.724694 75.80043242 -8.125 70.9375 C-7.135 70.9375 -6.145 70.9375 -5.125 70.9375 C-3.26278535 74.6619293 -3.57180893 78.8807655 -4.125 82.9375 C-8.77919166 88.83280944 -19.06256718 91.22517238 -26.125 92.9375 C-39.23057716 94.39301244 -50.77508372 93.08469201 -61.5 84.875 C-67.37493286 79.30669202 -71.69240951 70.70318539 -72.30200195 62.57836914 C-72.84636376 39.43106397 -72.84636376 39.43106397 -68.125 28.9375 C-67.72410156 28.01324219 -67.32320313 27.08898437 -66.91015625 26.13671875 C-60.11253561 12.20652224 -48.41850857 1.61652906 -33.8125 -3.5 C-22.47056224 -6.62509449 -10.04710709 -6.63109068 0 0 Z " fill="#F6F6F8" transform="translate(502.125,300.0625)"/>
<path d="M0 0 C-3.58978452 10.9764565 -3.58978452 10.9764565 -6.9375 13.40625 C-8.30667823 13.96636837 -9.68454029 14.50573392 -11.0703125 15.0234375 C-15.52379048 17.2772219 -17.35062965 22.37087789 -19.11328125 26.79296875 C-20.99509882 33.5990138 -21.37505355 42.48991687 -18.8125 49.1875 C-16.71379383 52.44411302 -15.44397208 54.16809996 -12 56 C-7.07112615 56.7994996 -3.2208179 56.5758575 1.3125 54.4375 C7.22535411 49.07467883 10.57780447 43.50669177 11.3359375 35.4140625 C11.41430274 27.81263414 11.38792104 22.33810817 7 16 C4.58582772 13.73671349 1.99269201 12.38946415 -1 11 C-0.11878488 7.47513951 0.74255624 5.28686591 3.1875 2.5625 C6 1 6 1 9.3125 0.9375 C17.42769437 3.27577634 22.75706465 7.71695522 27 15 C31.45214639 23.85389113 31.21567537 33.91974827 28.375 43.25 C24.72798377 52.92861998 18.88673213 61.58774869 9.40625 66.28515625 C0.12955732 70.09132869 -9.49560538 72.06162683 -19.33984375 68.94140625 C-27.81711255 64.99675028 -33.43043799 59.83281255 -37.4375 51.375 C-40.8130329 41.91768798 -39.98795949 31.13468456 -36 22 C-31.05530161 11.78711828 -24.33836376 5.34144161 -13.8984375 0.8671875 C-9.24868721 -0.52397768 -4.79900105 -0.41770802 0 0 Z " fill="#F6F6F8" transform="translate(546,323)"/>
<path d="M0 0 C2.8308885 2.6593195 3.25008443 4.288735 3.375 8.0625 C3.28555408 13.1283915 2.12257165 16.87734907 -0.9375 20.9375 C-8.67550098 28.36268817 -16.57665055 29.30042511 -26.9375 29.9375 C-27.14246094 31.22527344 -27.34742188 32.51304687 -27.55859375 33.83984375 C-27.83051652 35.51826363 -28.10266351 37.1966472 -28.375 38.875 C-28.50970703 39.72513672 -28.64441406 40.57527344 -28.78320312 41.45117188 C-28.91533203 42.26005859 -29.04746094 43.06894531 -29.18359375 43.90234375 C-29.30404053 44.6512085 -29.4244873 45.40007324 -29.54858398 46.17163086 C-29.9375 47.9375 -29.9375 47.9375 -30.9375 48.9375 C-32.45678038 49.00929964 -33.97917482 49.02142007 -35.5 49 C-36.32628906 48.99097656 -37.15257812 48.98195313 -38.00390625 48.97265625 C-38.64199219 48.96105469 -39.28007813 48.94945312 -39.9375 48.9375 C-40.42638981 40.98285532 -38.59034386 33.47898632 -36.9375 25.75 C-36.50594115 23.7160255 -36.07680979 21.68164121 -35.65356445 19.6459198 C-35.27076459 17.80679284 -34.87975673 15.96937991 -34.48828125 14.13208008 C-34.00214911 11.31247058 -33.82492187 8.78780408 -33.9375 5.9375 C-34.72125 6.4325 -35.505 6.9275 -36.3125 7.4375 C-38.9375 8.9375 -38.9375 8.9375 -40.9375 8.9375 C-41.2675 6.6275 -41.5975 4.3175 -41.9375 1.9375 C-28.6110018 -5.21730026 -13.47284704 -9.45965856 0 0 Z " fill="#F4F4F7" transform="translate(661.9375,409.0625)"/>
<path d="M0 0 C2.23375255 1.45655884 3.71913429 2.77420609 4.91796875 5.171875 C5.48652685 9.96400752 5.56007978 12.99088389 2.60546875 16.921875 C-2.02077732 21.68996352 -8.25839566 23.83579176 -14.79296875 24.41015625 C-16.89080357 24.42008291 -18.98866877 24.30914467 -21.08203125 24.171875 C-19.05570056 28.49559393 -19.05570056 28.49559393 -16.08203125 32.171875 C-9.89577873 33.16075551 -5.02558304 32.20413507 0.32421875 29.046875 C1.91796875 28.171875 1.91796875 28.171875 3.91796875 28.171875 C3.79296875 31.421875 3.79296875 31.421875 2.91796875 35.171875 C-2.96754893 40.12106032 -8.74882321 41.69087865 -16.2890625 41.55859375 C-21.67984039 40.81217835 -25.42162607 37.99296456 -29.01953125 34.046875 C-31.99000342 28.8048653 -31.82094761 23.00505123 -31.08203125 17.171875 C-28.1621186 9.69481297 -23.00956091 4.19938263 -16.23828125 0.0390625 C-11.41205571 -1.90191951 -4.83524904 -1.9232135 0 0 Z " fill="#F1F0F5" transform="translate(820.08203125,417.828125)"/>
<path d="M0 0 C-0.125 3.25 -0.125 3.25 -1 7 C-2.99330842 8.34331654 -4.99384866 9.67594012 -7 11 C-10.07420997 16.02949793 -10.55686801 21.24569723 -10 27 C-8.43343215 31.32225496 -8.43343215 31.32225496 -5 34 C-2.12693772 34.50095023 -2.12693772 34.50095023 1 34 C4.10164769 31.44975635 5.72566416 29.82300753 7 26 C7.19893471 23.50194841 7.32225834 21.06293404 7.375 18.5625 C7.42398438 17.24378906 7.47296875 15.92507813 7.5234375 14.56640625 C7.3435982 10.83788387 7.3435982 10.83788387 4.4765625 8.52734375 C3.65929687 8.02332031 2.84203125 7.51929688 2 7 C2.875 2.25 2.875 2.25 4 0 C9.81435334 0.28362699 13.19901923 2.81696188 17 7 C20.29950475 12.06943776 19.53714366 18.20700764 19 24 C17.34008205 30.71918883 13.80856246 35.30148676 8 39 C2.69296657 41.85929965 -3.02667845 43.23307145 -9 42 C-13.79168737 39.85854859 -17.12793722 37.2948811 -20.0625 32.9375 C-22.00030362 26.92362668 -22.34767554 19.46624367 -20.05078125 13.55859375 C-15.4522979 5.9137965 -9.38388473 -0.65468963 0 0 Z " fill="#F2F1F5" transform="translate(733,417)"/>
<path d="M0 0 C0.3740364 9.23711589 -0.50586245 17.95179424 -2.23388672 26.9934082 C-2.62464343 29.06061365 -2.98299536 31.1317841 -3.33984375 33.20507812 C-5.08209744 42.81157915 -7.5292466 53.50144196 -15.1875 60.1875 C-19.5641142 63.00798471 -22.84735286 63.36158927 -28 63 C-30.4375 61.875 -30.4375 61.875 -32 60 C-32.375 56.9375 -32.375 56.9375 -32 54 C-31.34 53.34 -30.68 52.68 -30 52 C-28.68 52 -27.36 52 -26 52 C-25.34 53.32 -24.68 54.64 -24 56 C-21.00922923 55.32714144 -21.00922923 55.32714144 -19.88916016 53.46435547 C-17.37994687 48.38938678 -16.13102159 43.71788237 -15.375 38.125 C-15.13668856 36.53366317 -14.89711521 34.94251479 -14.65625 33.3515625 C-14.54539062 32.5977832 -14.43453125 31.84400391 -14.3203125 31.06738281 C-13.92631071 28.52438955 -13.4179359 26.01507071 -12.875 23.5 C-11.87160469 18.70042578 -11.3948174 13.88326782 -11 9 C-11.78375 9.04125 -12.5675 9.0825 -13.375 9.125 C-16 9 -16 9 -18 7 C-18.125 4.375 -18.125 4.375 -18 2 C-15.94077867 1.46635113 -13.87743893 0.94857811 -11.8125 0.4375 C-10.66394531 0.14746094 -9.51539063 -0.14257812 -8.33203125 -0.44140625 C-5.06304875 -0.98943028 -3.16753487 -0.73932768 0 0 Z " fill="#F2F1F5" transform="translate(781,419)"/>
<path d="M0 0 C2.64 0 5.28 0 8 0 C7.85915204 1.79206547 7.71216299 3.58364917 7.5625 5.375 C7.48128906 6.37273437 7.40007813 7.37046875 7.31640625 8.3984375 C7 11 7 11 6 13 C10.62 13 15.24 13 20 13 C19 18 19 18 18 20 C14.83984375 20.4140625 14.83984375 20.4140625 10.9375 20.625 C9.64714844 20.69976562 8.35679687 20.77453125 7.02734375 20.8515625 C6.02832031 20.90054687 5.02929688 20.94953125 4 21 C1.92686581 29.45295786 0.51967344 37.28296246 1 46 C3.97 46 6.94 46 10 46 C8.52134577 52.65394402 8.52134577 52.65394402 6.19921875 54.1953125 C2.41389526 55.58035094 -1.04307918 55.75336393 -5 55 C-8.00202258 52.85569816 -8.75628523 52.27073066 -10 49 C-11.59585938 39.04012761 -8.72906969 29.49082719 -6 20 C-8.31 20 -10.62 20 -13 20 C-13 18.02 -13 16.04 -13 14 C-10.03 14 -7.06 14 -4 14 C-3.71125 12.618125 -3.4225 11.23625 -3.125 9.8125 C-2.36695066 6.3796194 -1.45231137 3.21583233 0 0 Z " fill="#F1F0F4" transform="translate(885,404)"/>
<path d="M0 0 C-2.13202105 14.92414735 -11.50888977 30.36555965 -22.6328125 40.3671875 C-25 42 -25 42 -27.6875 41.875 C-30 41 -30 41 -32 39 C-33.71536477 27.69056017 -29.18581104 17.65481167 -22.96875 8.4609375 C-16.48865752 0.3608219 -10.07431482 -0.92049577 0 0 Z " fill="#383865" transform="translate(633,336)"/>
<path d="M0 0 C2.60704898 2.60704898 2.23905333 4.47338241 2.265625 8.02734375 C2 10 2 10 0 13 C-2.57683613 12.48463277 -5.01462466 11.99488137 -7.5 11.125 C-10.17084566 10.72578213 -10.17084566 10.72578213 -12.4375 12.8125 C-19.4005959 20.7171466 -23.92948562 31.02082826 -27 41 C-29.97 41 -32.94 41 -36 41 C-36.32443149 35.05208927 -35.64019719 29.64401797 -34.5 23.8125 C-33.16167535 16.93175737 -32.75270969 10.58718241 -32.9921875 3.5625 C-32.99476563 2.716875 -32.99734375 1.87125 -33 1 C-31.10511048 -0.89488952 -28.42860854 -0.18019112 -25.91015625 -0.23046875 C-24 0 -24 0 -22 2 C-21.8046875 5.2578125 -21.8046875 5.2578125 -21.875 9.125 C-21.89304687 10.40632813 -21.91109375 11.68765625 -21.9296875 13.0078125 C-21.95289063 13.99523437 -21.97609375 14.98265625 -22 16 C-21.195625 14.4840625 -21.195625 14.4840625 -20.375 12.9375 C-15.60518695 4.6282497 -10.36018617 -2.54117774 0 0 Z " fill="#F3F2F5" transform="translate(705,417)"/>
<path d="M0 0 C1.75 2.375 1.75 2.375 2.25 5.4375 C1.75 8.375 1.75 8.375 0.5 10.25 C-1.25 11.375 -1.25 11.375 -5.25 11.375 C-5.91 9.395 -6.57 7.415 -7.25 5.375 C-11.16754899 4.91947105 -12.75407467 4.99440614 -15.9375 7.4375 C-20.40641803 13.11423371 -21.58175561 17.98580213 -21.6484375 25.04296875 C-21.15425533 27.93538794 -20.31717155 29.30316214 -18.25 31.375 C-13.03916226 32.92013593 -8.37199369 31.21059274 -3.6875 28.875 C-2.19860839 28.05916898 -0.7157091 27.23178194 0.75 26.375 C0.75 29.44762957 0.74702965 31.52634386 -0.25 34.375 C-5.63414343 39.45112607 -11.83893502 40.69573002 -19.00390625 40.58984375 C-23.66676884 40.14383081 -26.44521797 38.24503462 -29.5625 34.875 C-33.20384881 29.48040917 -32.68358926 23.65795386 -32.25 17.375 C-30.22322571 10.22167896 -25.17425996 4.10391948 -19.0625 -0.125 C-13.2096854 -3.09785821 -5.76207636 -2.88103818 0 0 Z " fill="#F4F2F6" transform="translate(864.25,418.625)"/>
<path d="M0 0 C-0.48641215 6.84817102 -1.35993952 13.33042073 -3 20 C-1.02 20 0.96 20 3 20 C1.75 22.4375 1.75 22.4375 0 25 C-2.109375 25.66015625 -2.109375 25.66015625 -4 26 C-4.20496094 27.28777344 -4.40992188 28.57554687 -4.62109375 29.90234375 C-4.89301652 31.58076363 -5.16516351 33.2591472 -5.4375 34.9375 C-5.57220703 35.78763672 -5.70691406 36.63777344 -5.84570312 37.51367188 C-5.97783203 38.32255859 -6.10996094 39.13144531 -6.24609375 39.96484375 C-6.36654053 40.7137085 -6.4869873 41.46257324 -6.61108398 42.23413086 C-7 44 -7 44 -8 45 C-9.51928038 45.07179964 -11.04167482 45.08392007 -12.5625 45.0625 C-13.38878906 45.05347656 -14.21507812 45.04445313 -15.06640625 45.03515625 C-15.70449219 45.02355469 -16.34257813 45.01195312 -17 45 C-17.42593046 37.75918221 -16.01042976 30.96582301 -14.54638672 23.90869141 C-14.12488082 21.87442479 -13.71583091 19.83794718 -13.30859375 17.80078125 C-10.86553367 5.76590387 -10.86553367 5.76590387 -9 1 C-6.04335481 -0.4783226 -3.25770263 -0.06032783 0 0 Z " fill="#F5F5F7" transform="translate(639,413)"/>
<path d="M0 0 C1.32 0.66 2.64 1.32 4 2 C3.34 3.65 2.68 5.3 2 7 C2.61875 7.28875 3.2375 7.5775 3.875 7.875 C6 9 6 9 8 11 C8.22660954 13.48681895 8.32434998 15.82637349 8.3125 18.3125 C8.32925781 19.62863281 8.34601562 20.94476563 8.36328125 22.30078125 C7.88748705 27.14569638 6.11644946 29.57556448 3.1875 33.3125 C1 35 1 35 -1.9375 35.5625 C-6.0020632 34.81594757 -7.42779714 33.16013494 -10 30 C-11.99847527 24.0045742 -11.36725426 18.51102459 -8.9921875 12.765625 C-7.48852847 10.08982232 -5.58482249 8.59065999 -3 7 C-2.34 7 -1.68 7 -1 7 C-0.67 4.69 -0.34 2.38 0 0 Z " fill="#3A3A67" transform="translate(733,417)"/>
<path d="M0 0 C3.21625747 0.54744808 4.6450691 1.2075691 6.9375 3.5 C8.08638581 6.94665742 8.1414347 9.74351905 8.1875 13.375 C8.21328125 14.58929687 8.2390625 15.80359375 8.265625 17.0546875 C7.8212614 21.72050533 6.20213367 24.23536633 2.9375 27.5 C0.125 28 0.125 28 -3.0625 27.5 C-6.64877462 24.0927758 -7.88814483 22.52664426 -8.7265625 17.58984375 C-8.73968206 16.2057301 -8.72625723 14.82113312 -8.6875 13.4375 C-8.70683594 12.74333984 -8.72617187 12.04917969 -8.74609375 11.33398438 C-8.70881649 7.4086889 -8.16998619 5.63574379 -5.71484375 2.53515625 C-3.0625 0.5 -3.0625 0.5 0 0 Z " fill="#383565" transform="translate(922.0625,963.5)"/>
<path d="M0 0 C2.73507571 2.07742829 2.96696229 2.78112515 3.5 6.3125 C2.89614165 10.76595536 1.43236425 13.23061075 -2 16 C-8.18288435 19.79826152 -14.97855397 19.31596507 -22 19 C-21.72886542 12.49277003 -19.38647379 8.74686483 -15 4 C-10.46199781 -0.03377973 -5.94510813 -1.25696572 0 0 Z " fill="#383764" transform="translate(704,334)"/>
<path d="M0 0 C4.63977252 0.03699978 7.22820614 1.26585022 10.8125 4.3125 C12.25218406 7.19186812 12.115323 9.10257619 11.8125 12.3125 C10.40340545 15.92713385 8.59602294 18.62115623 5.6875 21.1875 C1.48919984 22.8303131 -2.71254532 23.06051226 -7.1875 23.3125 C-7.043125 22.3946875 -6.89875 21.476875 -6.75 20.53125 C-5.76812561 14.03996933 -5.05892259 7.86994775 -5.1875 1.3125 C-3.63719882 -0.23780118 -2.15073999 0.06844901 0 0 Z " fill="#3F3F6A" transform="translate(643.1875,409.6875)"/>
<path d="M0 0 C0.66 0 1.32 0 2 0 C2 2.31 2 4.62 2 7 C3.32 7 4.64 7 6 7 C6.33 4.69 6.66 2.38 7 0 C7.66 0 8.32 0 9 0 C9 2.31 9 4.62 9 7 C9.66 7 10.32 7 11 7 C11 7.99 11 8.98 11 10 C9.68 10 8.36 10 7 10 C6.67 11.98 6.34 13.96 6 16 C7.32 16 8.64 16 10 16 C10 16.66 10 17.32 10 18 C8.35 18 6.7 18 5 18 C5.061875 19.423125 5.061875 19.423125 5.125 20.875 C5 24 5 24 3 26 C3 23.36 3 20.72 3 18 C1.68 18 0.36 18 -1 18 C-1.33 20.64 -1.66 23.28 -2 26 C-2.66 26 -3.32 26 -4 26 C-4 23.69 -4 21.38 -4 19 C-4.66 19 -5.32 19 -6 19 C-6 18.01 -6 17.02 -6 16 C-5.01 15.67 -4.02 15.34 -3 15 C-2.67 13.35 -2.34 11.7 -2 10 C-2.99 10 -3.98 10 -5 10 C-5 9.01 -5 8.02 -5 7 C-3.68 7 -2.36 7 -1 7 C-0.67 4.69 -0.34 2.38 0 0 Z " fill="#8A86B1" transform="translate(798,964)"/>
<path d="M0 0 C0 0.33 0 0.66 0 1 C-1.98 1.33 -3.96 1.66 -6 2 C-6.33 2.99 -6.66 3.98 -7 5 C-6.01 5.33 -5.02 5.66 -4 6 C-6.64 6.33 -9.28 6.66 -12 7 C-12 7.66 -12 8.32 -12 9 C-12.95712891 9.07347656 -12.95712891 9.07347656 -13.93359375 9.1484375 C-15.17302734 9.26058594 -15.17302734 9.26058594 -16.4375 9.375 C-17.26121094 9.44460938 -18.08492187 9.51421875 -18.93359375 9.5859375 C-19.95646484 9.79089844 -19.95646484 9.79089844 -21 10 C-21.33 10.66 -21.66 11.32 -22 12 C-22.99 12 -23.98 12 -25 12 C-26.68236471 12.62599617 -28.3523962 13.28752268 -30 14 C-30.33 11.69 -30.66 9.38 -31 7 C-20.13155478 1.16489211 -12.37018161 -0.33942571 0 0 Z " fill="#EBEBF0" transform="translate(651,404)"/>
<path d="M0 0 C3.21625747 0.54744808 4.6450691 1.2075691 6.9375 3.5 C8.08638581 6.94665742 8.1414347 9.74351905 8.1875 13.375 C8.21328125 14.58929687 8.2390625 15.80359375 8.265625 17.0546875 C7.8212614 21.72050533 6.20213367 24.23536633 2.9375 27.5 C0.125 28 0.125 28 -3.0625 27.5 C-6.64877462 24.0927758 -7.88814483 22.52664426 -8.7265625 17.58984375 C-8.73968206 16.2057301 -8.72625723 14.82113312 -8.6875 13.4375 C-8.70683594 12.74333984 -8.72617187 12.04917969 -8.74609375 11.33398438 C-8.70881649 7.4086889 -8.16998619 5.63574379 -5.71484375 2.53515625 C-3.0625 0.5 -3.0625 0.5 0 0 Z M-3.69921875 5.12109375 C-5.47642959 8.2223012 -5.46198215 10.4419281 -5.4375 14 C-5.44523438 15.1240625 -5.45296875 16.248125 -5.4609375 17.40625 C-5.03459801 20.71665072 -4.29950419 22.08545579 -2.0625 24.5 C1.86825644 23.92547254 1.86825644 23.92547254 4.9375 21.5 C5.13643799 18.97524284 5.21597435 16.58485251 5.1875 14.0625 C5.19523438 13.38123047 5.20296875 12.69996094 5.2109375 11.99804688 C5.19639434 8.28590558 5.04690418 6.66410628 2.9375 3.5 C-0.13171546 2.94911517 -1.44204879 2.88547195 -3.69921875 5.12109375 Z " fill="#918DC4" transform="translate(922.0625,963.5)"/>
<path d="M0 0 C2.875 1.625 2.875 1.625 5 4 C5.75644675 7.86628339 5.24362375 9.56689111 3.3125 13 C2.549375 13.99 1.78625 14.98 1 16 C0.56816406 16.56460938 0.13632812 17.12921875 -0.30859375 17.7109375 C-1.47888076 19.19029141 -2.73446829 20.60125443 -4 22 C-4.66 22 -5.32 22 -6 22 C-6 22.66 -6 23.32 -6 24 C-2.37 24 1.26 24 5 24 C5 24.99 5 25.98 5 27 C0.05 27 -4.9 27 -10 27 C-8.77030373 20.85151866 -6.15506607 18.44243015 -2.03125 13.9140625 C0.32589909 10.53246014 0.7172958 8.0689212 1 4 C-1.31 3.67 -3.62 3.34 -6 3 C-6.66 4.65 -7.32 6.3 -8 8 C-8.66 8 -9.32 8 -10 8 C-9.6875 5.125 -9.6875 5.125 -9 2 C-5.48746854 -0.34168764 -4.13530644 -0.49623677 0 0 Z " fill="#8F89B7" transform="translate(864,964)"/>
<path d="M0 0 C2.4375 1.5625 2.4375 1.5625 4 4 C4.6875 7.25 4.6875 7.25 4 11 C2.43063057 13.23301236 0.72507559 15.14882156 -1.17578125 17.10546875 C-3.31500862 19.24961997 -3.31500862 19.24961997 -6 23 C-2.37 23.33 1.26 23.66 5 24 C5 24.99 5 25.98 5 27 C-0.28 27 -5.56 27 -11 27 C-9.93243218 21.66216089 -9.18245777 20.77249772 -5.5 17.125 C-1.59396977 13.1028767 -1.59396977 13.1028767 0.125 7.9375 C0.33648017 5.11101184 0.33648017 5.11101184 -1 4 C-2.66617115 3.95936168 -4.33388095 3.957279 -6 4 C-6.66 5.32 -7.32 6.64 -8 8 C-8.99 8 -9.98 8 -11 8 C-10.64987213 5.40905378 -10.26229035 3.4225789 -8.875 1.1875 C-5.84814901 -0.72950563 -3.4846244 -0.42793633 0 0 Z " fill="#8C86B8" transform="translate(946,964)"/>
<path d="M0 0 C2.375 1 2.375 1 4 3 C4.82832073 7.36750932 4.87767711 9.57610894 2.53125 13.3828125 C0.75730911 15.66037221 -1.09590035 17.83087578 -3 20 C-3.99 21.32 -4.98 22.64 -6 24 C-2.37 24 1.26 24 5 24 C5 24.99 5 25.98 5 27 C0.05 27 -4.9 27 -10 27 C-10.33 26.01 -10.66 25.02 -11 24 C-9.70703125 22.1328125 -9.70703125 22.1328125 -7.8125 20.125 C-7.16667969 19.41730469 -6.52085937 18.70960938 -5.85546875 17.98046875 C-5.24316406 17.32691406 -4.63085938 16.67335938 -4 16 C-0.33085118 12.04118153 0.57636325 9.4013685 1 4 C-1.31 4 -3.62 4 -6 4 C-6.66 5.32 -7.32 6.64 -8 8 C-8.99 8 -9.98 8 -11 8 C-10.67842796 5.02545866 -10.37860258 3.40664722 -8.3125 1.1875 C-5.29150017 -0.36382423 -3.35781526 -0.41972691 0 0 Z " fill="#8F87B4" transform="translate(844,964)"/>
<path d="M0 0 C2.4375 1 2.4375 1 4 3 C4.80353598 6.46138578 5.00076285 7.70336944 4 11 C1.36585066 15.01193085 -1.57433916 18.63617419 -5 22 C-5.66 22 -6.32 22 -7 22 C-7 22.66 -7 23.32 -7 24 C-3.04 24 0.92 24 5 24 C5 24.99 5 25.98 5 27 C0.05 27 -4.9 27 -10 27 C-10.33 25.68 -10.66 24.36 -11 23 C-8.64433381 20.0755703 -6.00584561 17.57116682 -3.3203125 14.94921875 C-0.62333314 11.52123993 -0.15764024 9.31408803 0 5 C-1.04862094 3.74843946 -1.04862094 3.74843946 -3.375 3.6875 C-6.1489525 3.71481799 -6.1489525 3.71481799 -7.6875 6 C-8.120625 6.66 -8.55375 7.32 -9 8 C-9.66 8 -10.32 8 -11 8 C-10.64987213 5.40905378 -10.26229035 3.4225789 -8.875 1.1875 C-5.88203065 -0.70804726 -3.45004411 -0.36316254 0 0 Z " fill="#918CBF" transform="translate(905,964)"/>
<path d="M0 0 C2.4375 1.625 2.4375 1.625 4 4 C4.67075658 7.85685036 4.23681689 9.5789922 2.3125 13 C1.549375 13.99 0.78625 14.98 0 16 C-0.43183594 16.56460938 -0.86367188 17.12921875 -1.30859375 17.7109375 C-2.47888076 19.19029141 -3.73446829 20.60125443 -5 22 C-5.66 22 -6.32 22 -7 22 C-7 22.66 -7 23.32 -7 24 C-3.04 24 0.92 24 5 24 C5 24.99 5 25.98 5 27 C-0.28 27 -5.56 27 -11 27 C-9.93243218 21.66216089 -9.18245777 20.77249772 -5.5 17.125 C-1.59396977 13.1028767 -1.59396977 13.1028767 0.125 7.9375 C0.33648017 5.11101184 0.33648017 5.11101184 -1 4 C-3.37305578 3.58219121 -3.37305578 3.58219121 -6 4 C-8.31377147 5.89584109 -8.31377147 5.89584109 -10 8 C-10.75 6.25 -10.75 6.25 -11 4 C-8.03609183 -0.44586226 -5.11337732 -0.73048247 0 0 Z " fill="#8D88BA" transform="translate(885,964)"/>
<path d="M0 0 C2.4375 1.625 2.4375 1.625 4 4 C4.65204101 7.74923579 4.25658084 9.52789125 2.4375 12.875 C-0.56670634 16.72654659 -3.73904287 20.36277859 -7 24 C-3.04 24 0.92 24 5 24 C5 24.99 5 25.98 5 27 C-0.28 27 -5.56 27 -11 27 C-9.93243218 21.66216089 -9.18245777 20.77249772 -5.5 17.125 C-1.59396977 13.1028767 -1.59396977 13.1028767 0.125 7.9375 C0.33648017 5.11101184 0.33648017 5.11101184 -1 4 C-3.41583753 3.66625723 -3.41583753 3.66625723 -6 4 C-7.68798827 5.43750191 -7.68798827 5.43750191 -9 7 C-9.66 7 -10.32 7 -11 7 C-10.6875 4.625 -10.6875 4.625 -10 2 C-6.2794164 -0.48038907 -4.40203429 -0.46337203 0 0 Z " fill="#8D88B7" transform="translate(824,964)"/>
<path d="M0 0 C1 1 1 1 1.0625 4.5625 C1.041875 5.696875 1.02125 6.83125 1 8 C-4.22771463 11.04157942 -7.92671312 12.50610724 -14 12 C-13.55396127 6.94489444 -11.35299176 4.59833262 -8 1 C-5.26752652 -0.36623674 -3.01801098 -0.128426 0 0 Z " fill="#3A3A66" transform="translate(814,423)"/>
<path d="M0 0 C1.8125 1.1875 1.8125 1.1875 3 3 C3.58989164 6.28653916 3.28037501 7.57382999 1.4375 10.375 C-1 12 -1 12 -4.6875 11.875 C-5.780625 11.58625 -6.87375 11.2975 -8 11 C-9.41441874 8.17116253 -9.31900332 6.12623255 -9 3 C-6.30254095 0.00282328 -3.95012118 -0.60771095 0 0 Z " fill="#F5F3F6" transform="translate(779,400)"/>
<path d="M0 0 C0.66 0 1.32 0 2 0 C2 2.31 2 4.62 2 7 C2.66 7 3.32 7 4 7 C4 7.99 4 8.98 4 10 C2.68 10 1.36 10 0 10 C-0.33 11.98 -0.66 13.96 -1 16 C0.32 16 1.64 16 3 16 C3 16.66 3 17.32 3 18 C1.35 18 -0.3 18 -2 18 C-1.938125 19.423125 -1.938125 19.423125 -1.875 20.875 C-2 24 -2 24 -4 26 C-4.43337476 17.76587951 -3.74608285 7.4921657 0 0 Z " fill="#8C85B9" transform="translate(805,964)"/>
<path d="M0 0 C0 3 0 3 -1 5 C-1.66 5 -2.32 5 -3 5 C-3 5.66 -3 6.32 -3 7 C0.96 7 4.92 7 9 7 C9 7.99 9 8.98 9 10 C3.72 10 -1.56 10 -7 10 C-5.77446495 3.87232474 -4.72441958 3.51818479 0 0 Z " fill="#8682B0" transform="translate(881,981)"/>
<path d="M0 0 C0.66 0 1.32 0 2 0 C2.01417969 0.94101562 2.02835938 1.88203125 2.04296875 2.8515625 C2.0483324 10.92773803 2.0483324 10.92773803 5.5625 17.875 C6.366875 18.57625 7.17125 19.2775 8 20 C5.75 20.3125 5.75 20.3125 3 20 C0.6875 18.25 0.6875 18.25 -1 15 C-1.49670354 9.88119412 -1.63513143 4.90539428 0 0 Z " fill="#9B99C2" transform="translate(915,970)"/>
<path d="M0 0 C0.66 0 1.32 0 2 0 C2 2.31 2 4.62 2 7 C3.32 7.33 4.64 7.66 6 8 C5.34 10.64 4.68 13.28 4 16 C2.68 16 1.36 16 0 16 C0.020625 14.989375 0.04125 13.97875 0.0625 12.9375 C0.08560501 9.00708906 0.08560501 9.00708906 -0.5625 5.1875 C-1 2 -1 2 0 0 Z " fill="#7B77A5" transform="translate(798,964)"/>
<path d="M0 0 C2.375 2 2.375 2 4 4 C3.34 5.65 2.68 7.3 2 9 C1.67 9 1.34 9 1 9 C1 7.35 1 5.7 1 4 C-1.31 3.67 -3.62 3.34 -6 3 C-6.66 4.65 -7.32 6.3 -8 8 C-8.66 8 -9.32 8 -10 8 C-9.6875 5.125 -9.6875 5.125 -9 2 C-5.50875983 -0.32749345 -4.10777749 -0.50299316 0 0 Z " fill="#8883B2" transform="translate(864,964)"/>
<path d="M0 0 C0.33 1.32 0.66 2.64 1 4 C1.66 4 2.32 4 3 4 C3 4.66 3 5.32 3 6 C2.34 6 1.68 6 1 6 C1 12.93 1 19.86 1 27 C-0.88295885 23.2340823 -1.24970071 22.0462138 -1.23046875 18.0859375 C-1.22853516 17.16039062 -1.22660156 16.23484375 -1.22460938 15.28125 C-1.21236328 14.3221875 -1.20011719 13.363125 -1.1875 12.375 C-1.18685547 11.40820312 -1.18621094 10.44140625 -1.18554688 9.4453125 C-1.14052002 2.28104005 -1.14052002 2.28104005 0 0 Z " fill="#D7B8D2" transform="translate(111,334)"/>
<path d="M0 0 C6.93 0.495 6.93 0.495 14 1 C14 1.99 14 2.98 14 4 C9.05 4 4.1 4 -1 4 C-0.67 2.68 -0.34 1.36 0 0 Z " fill="#8A87B5" transform="translate(896,987)"/>
<path d="M0 0 C0.99 0.33 1.98 0.66 3 1 C2.72482232 5.67802059 0.66806114 7.74638753 -2.52734375 10.86328125 C-4 12 -4 12 -6 12 C-5.42316338 8.10635283 -3.45178223 5.98810959 -1 3 C-0.67 2.01 -0.34 1.02 0 0 Z " fill="#928DC5" transform="translate(947,971)"/>
<path d="M0 0 C0.99 0.33 1.98 0.66 3 1 C2.44271087 4.34373475 1.64826111 7.03312999 0 10 C-1.32 10 -2.64 10 -4 10 C-2.8905928 6.51329166 -1.73662334 3.22515763 0 0 Z " fill="#424566" transform="translate(545,324)"/>
<path d="M0 0 C-0.33 0.99 -0.66 1.98 -1 3 C-2.64551962 3.71727778 -4.31422289 4.38325228 -6 5 C-6.66 5.66 -7.32 6.32 -8 7 C-8.66 6.67 -9.32 6.34 -10 6 C-10.33 6.99 -10.66 7.98 -11 9 C-10.66009204 5.94082833 -10.14301602 4.19598492 -8.3125 1.6875 C-5.37575119 -0.45553291 -3.55482252 -0.32316568 0 0 Z " fill="#8782AE" transform="translate(925,964)"/>
<path d="M0 0 C2.64 0 5.28 0 8 0 C7.34 2.31 6.68 4.62 6 7 C4.68 7 3.36 7 2 7 C1.34 4.69 0.68 2.38 0 0 Z " fill="#333264" transform="translate(638,411)"/>
<path d="M0 0 C0.98484375 0.02707031 1.9696875 0.05414062 2.984375 0.08203125 C3.73203125 0.11683594 4.4796875 0.15164063 5.25 0.1875 C5.25 1.1775 5.25 2.1675 5.25 3.1875 C0.3 3.1875 -4.65 3.1875 -9.75 3.1875 C-5.5452889 0.03396667 -4.89908143 -0.17496719 0 0 Z " fill="#847DAB" transform="translate(843.75,987.8125)"/>
<path d="M0 0 C-2.27511257 3.41266885 -3.3542658 3.54170632 -7 5 C-7.99 6.485 -7.99 6.485 -9 8 C-9.66 8 -10.32 8 -11 8 C-10.64987213 5.40905378 -10.26229035 3.4225789 -8.875 1.1875 C-5.99131838 -0.63883169 -3.32254207 -0.18806842 0 0 Z " fill="#817FAF" transform="translate(905,964)"/>
<path d="M0 0 C1.65 0 3.3 0 5 0 C5.77842938 3.40562852 6.09978121 6.50765756 6 10 C5.34 10 4.68 10 4 10 C3.67 7.69 3.34 5.38 3 3 C2.01 3 1.02 3 0 3 C0 2.01 0 1.02 0 0 Z " fill="#807CAA" transform="translate(793,971)"/>
<path d="M0 0 C0.66 0 1.32 0 2 0 C2.08078641 2.12438339 2.13909141 4.2496323 2.1875 6.375 C2.22230469 7.55835938 2.25710938 8.74171875 2.29296875 9.9609375 C2.19628906 10.96382812 2.09960938 11.96671875 2 13 C1.01 13.66 0.02 14.32 -1 15 C-1.02703381 13.06257659 -1.04641125 11.12504521 -1.0625 9.1875 C-1.07410156 8.10855469 -1.08570313 7.02960937 -1.09765625 5.91796875 C-1 3 -1 3 0 0 Z " fill="#9491BD" transform="translate(915,970)"/>
<path d="M0 0 C0.33 0 0.66 0 1 0 C1 4.29 1 8.58 1 13 C0.34 12.67 -0.32 12.34 -1 12 C-1.33333333 10 -1.66666667 8 -2 6 C-2.66 5.67 -3.32 5.34 -4 5 C-2.69254251 3.31295807 -1.35827971 1.64639965 0 0 Z " fill="#5C5C79" transform="translate(627,372)"/>
<path d="M0 0 C0.33 0.99 0.66 1.98 1 3 C0.24074219 3.03738281 -0.51851562 3.07476562 -1.30078125 3.11328125 C-2.29464844 3.17902344 -3.28851562 3.24476563 -4.3125 3.3125 C-5.29863281 3.37050781 -6.28476562 3.42851562 -7.30078125 3.48828125 C-10.29854867 4.05659895 -11.0526105 4.76499605 -13 7 C-13.66 7 -14.32 7 -15 7 C-14.67 5.35 -14.34 3.7 -14 2 C-9.38 2 -4.76 2 0 2 C0 1.34 0 0.68 0 0 Z " fill="#4B4B71" transform="translate(903,422)"/>
<path d="M0 0 C1.32 0.66 2.64 1.32 4 2 C3.34 3.65 2.68 5.3 2 7 C2.66 7.33 3.32 7.66 4 8 C1.625 8.625 1.625 8.625 -1 9 C-1.66 8.34 -2.32 7.68 -3 7 C-2.34 7 -1.68 7 -1 7 C-0.67 4.69 -0.34 2.38 0 0 Z " fill="#484C73" transform="translate(733,417)"/>
<path d="M0 0 C0.268125 0.639375 0.53625 1.27875 0.8125 1.9375 C1.88667752 4.33131686 1.88667752 4.33131686 5 5 C3.35 7.64 1.7 10.28 0 13 C-0.89377528 9.42489889 -1.0258444 7.75082437 -0.5625 4.25 C-0.46066406 3.45078125 -0.35882812 2.6515625 -0.25390625 1.828125 C-0.17011719 1.22484375 -0.08632813 0.6215625 0 0 Z " fill="#61627F" transform="translate(683,421)"/>
<path d="M0 0 C0.66 0.33 1.32 0.66 2 1 C-1.63 4.63 -5.26 8.26 -9 12 C-9 8.00102358 -7.64683965 6.93298448 -5 4 C-3.36643049 2.62631655 -1.7074998 1.28062485 0 0 Z " fill="#DCDCEB" transform="translate(605,330)"/>
<path d="M0 0 C0 0.33 0 0.66 0 1 C-1.98 1 -3.96 1 -6 1 C-6.0825 1.61875 -6.165 2.2375 -6.25 2.875 C-7 5 -7 5 -9.0625 6.25 C-10.0215625 6.62125 -10.0215625 6.62125 -11 7 C-10.6875 4.625 -10.6875 4.625 -10 2 C-6.3558226 -0.4294516 -4.28758728 -0.16179575 0 0 Z " fill="#8884B4" transform="translate(824,964)"/>
<path d="M0 0 C0.33 0 0.66 0 1 0 C1.0809313 2.60478883 1.14045434 5.20706653 1.1875 7.8125 C1.21263672 8.55048828 1.23777344 9.28847656 1.26367188 10.04882812 C1.29296875 12.20703125 1.29296875 12.20703125 1 16 C0.01 16.99 -0.98 17.98 -2 19 C-1.34 12.73 -0.68 6.46 0 0 Z " fill="#57566F" transform="translate(781,421)"/>
<path d="M0 0 C1.32 0 2.64 0 4 0 C3.67 1.98 3.34 3.96 3 6 C1.68 6 0.36 6 -1 6 C-0.67 4.02 -0.34 2.04 0 0 Z " fill="#42416E" transform="translate(799,974)"/>
<path d="M0 0 C0.66 0 1.32 0 2 0 C2 2.31 2 4.62 2 7 C2.66 7 3.32 7 4 7 C3.67 7.99 3.34 8.98 3 10 C3 9.34 3 8.68 3 8 C1.68 7.67 0.36 7.34 -1 7 C-0.67 4.69 -0.34 2.38 0 0 Z " fill="#7A77A3" transform="translate(805,964)"/>
<path d="M0 0 C-0.99 0.495 -0.99 0.495 -2 1 C-2.33 1.66 -2.66 2.32 -3 3 C-4.32488113 3.36548445 -5.66018514 3.6937566 -7 4 C-8.3479743 4.63654342 -9.68596724 5.29605388 -11 6 C-8.60159776 0.46522561 -5.82500047 -0.25888891 0 0 Z " fill="#50516F" transform="translate(857,423)"/>
<path d="M0 0 C0.66 0.33 1.32 0.66 2 1 C1.401875 1.556875 0.80375 2.11375 0.1875 2.6875 C-2.07852072 4.91398916 -2.07852072 4.91398916 -3.5625 7.625 C-5 10 -5 10 -8 12 C-6.49087042 7.01987239 -3.44338151 3.75740058 0 0 Z " fill="#44446E" transform="translate(691,336)"/>
<path d="M0 0 C0.99 0.66 1.98 1.32 3 2 C1.375 4 1.375 4 -1 6 C-4.25 6.25 -4.25 6.25 -7 6 C-4.88929795 2.83394693 -3.26460973 1.80412643 0 0 Z " fill="#8889B4" transform="translate(926,985)"/>
<path d="M0 0 C2.0625 0.4375 2.0625 0.4375 4 1 C4 1.66 4 2.32 4 3 C3.01 3 2.02 3 1 3 C0.67 4.98 0.34 6.96 0 9 C-0.66 9 -1.32 9 -2 9 C-1.125 1.125 -1.125 1.125 0 0 Z " fill="#968FBC" transform="translate(804,971)"/>
<path d="M0 0 C0.99 0.33 1.98 0.66 3 1 C3.125 6.75 3.125 6.75 2 9 C1.34 9 0.68 9 0 9 C0 6.03 0 3.06 0 0 Z " fill="#948FC4" transform="translate(886,967)"/>
<path d="M0 0 C2.33944736 0.28730055 4.6739143 0.61936779 7 1 C5 3 5 3 2.6171875 3.1953125 C1.71226562 3.17210937 0.80734375 3.14890625 -0.125 3.125 C-1.49011719 3.09792969 -1.49011719 3.09792969 -2.8828125 3.0703125 C-3.58148437 3.04710937 -4.28015625 3.02390625 -5 3 C-4.360625 2.690625 -3.72125 2.38125 -3.0625 2.0625 C-1.06389179 1.1654837 -1.06389179 1.1654837 0 0 Z " fill="#44446A" transform="translate(809,448)"/>
<path d="M0 0 C0.886875 0.103125 1.77375 0.20625 2.6875 0.3125 C1.6975 0.6425 0.7075 0.9725 -0.3125 1.3125 C-0.3125 1.9725 -0.3125 2.6325 -0.3125 3.3125 C-2.9525 3.9725 -5.5925 4.6325 -8.3125 5.3125 C-4.12788462 0.38942308 -4.12788462 0.38942308 0 0 Z " fill="#474969" transform="translate(811.3125,422.6875)"/>
<path d="M0 0 C0.66 0 1.32 0 2 0 C1.67 1.98 1.34 3.96 1 6 C0.01 6.33 -0.98 6.66 -2 7 C-1.125 1.125 -1.125 1.125 0 0 Z " fill="#918AB9" transform="translate(856,965)"/>
<path d="M0 0 C0 1.65 0 3.3 0 5 C-2.64 4.67 -5.28 4.34 -8 4 C-2.7826087 0 -2.7826087 0 0 0 Z " fill="#D0D2DA" transform="translate(824,446)"/>
<path d="M0 0 C-0.66 0 -1.32 0 -2 0 C-2 0.66 -2 1.32 -2 2 C-5.3 1.67 -8.6 1.34 -12 1 C-12.33 1.66 -12.66 2.32 -13 3 C-13 2.01 -13 1.02 -13 0 C-11.58456585 -0.19658808 -10.16755969 -0.38187546 -8.75 -0.5625 C-7.96109375 -0.66691406 -7.1721875 -0.77132813 -6.359375 -0.87890625 C-3.99467126 -1.00027349 -2.2488963 -0.69633257 0 0 Z " fill="#646383" transform="translate(812,442)"/>
<path d="M0 0 C0.99 0 1.98 0 3 0 C3 1.98 3 3.96 3 6 C1.68 6 0.36 6 -1 6 C-0.67 4.02 -0.34 2.04 0 0 Z " fill="#464276" transform="translate(805,974)"/>
<path d="M0 0 C0.66 0 1.32 0 2 0 C2 1.98 2 3.96 2 6 C1.01 6.33 0.02 6.66 -1 7 C-1.04254356 5.00045254 -1.04080783 2.99958364 -1 1 C-0.67 0.67 -0.34 0.34 0 0 Z " fill="#968FC4" transform="translate(826,968)"/>
<path d="M0 0 C3.375 -0.1875 3.375 -0.1875 7 0 C7.66 0.99 8.32 1.98 9 3 C8.34 3.66 7.68 4.32 7 5 C3.34683329 3.75023244 2.21934164 3.32901247 0 0 Z " fill="#847FB3" transform="translate(878,964)"/>
<path d="M0 0 C1.98 0 3.96 0 6 0 C5.67 3.3 5.34 6.6 5 10 C4.67 10 4.34 10 4 10 C3.896875 8.906875 3.79375 7.81375 3.6875 6.6875 C3.02692273 3.14440371 2.7972908 2.06756277 0 0 Z " fill="#423E79" transform="translate(844,964)"/>
<path d="M0 0 C-4 2 -4 2 -8 4 C-8 5.65 -8 7.3 -8 9 C-8.33 9 -8.66 9 -9 9 C-9.25 6.1875 -9.25 6.1875 -9 3 C-6.24653799 -0.05940224 -4.00406942 -0.33367245 0 0 Z " fill="#CECCDD" transform="translate(779,400)"/>
<path d="M0 0 C0.66 0.66 1.32 1.32 2 2 C4.57061311 2.64767793 4.57061311 2.64767793 7 3 C7 3.33 7 3.66 7 4 C3.7 4 0.4 4 -3 4 C-3 3.34 -3 2.68 -3 2 C-2.01 1.34 -1.02 0.68 0 0 Z " fill="#9792BE" transform="translate(836,986)"/>
<path d="M0 0 C0.66 0.66 1.32 1.32 2 2 C-0.31 4.31 -2.62 6.62 -5 9 C-5.66 8.34 -6.32 7.68 -7 7 C-6.21625 6.401875 -5.4325 5.80375 -4.625 5.1875 C-1.85425677 3.08914751 -1.85425677 3.08914751 0 0 Z " fill="#E6E5F1" transform="translate(616,369)"/>
<path d="M0 0 C0.99 0 1.98 0 3 0 C3 1.65 3 3.3 3 5 C1.68 5.33 0.36 5.66 -1 6 C-0.67 4.02 -0.34 2.04 0 0 Z " fill="#424170" transform="translate(793,974)"/>
<path d="M0 0 C3.3 0 6.6 0 10 0 C10 1.65 10 3.3 10 5 C9.649375 4.525625 9.29875 4.05125 8.9375 3.5625 C6.15836457 1.32126175 3.4855283 1.32882342 0 1 C0 0.67 0 0.34 0 0 Z " fill="#43445F" transform="translate(674,416)"/>
</svg>
